<?xml version="1.0" encoding="utf-8"?>
<!-- Generator: Adobe Illustrator 27.5.0, SVG Export Plug-In . SVG Version: 6.00 Build 0)  -->
<svg version="1.1" id="Layer_1" xmlns="http://www.w3.org/2000/svg" xmlns:xlink="http://www.w3.org/1999/xlink" x="0px" y="0px"
	 viewBox="0 0 512 129.1" style="enable-background:new 0 0 512 129.1;" xml:space="preserve">
<g>
	<g>
		<path d="M21.67,22.17H6V7.11h49.13v15.06H39.46v38.18h-17.8V22.17z"/>
		<path d="M59.16,7.11h17.8V25.9h16.28V7.11h17.8v53.24h-17.8V41.26H76.95v19.09h-17.8V7.11z"/>
		<path d="M115.89,33.88v-0.15c0-15.44,12.7-27.76,29.13-27.76s28.98,12.09,28.98,27.61v0.15c0,15.44-12.7,27.76-29.13,27.76
			S115.89,49.4,115.89,33.88z M156.04,33.88v-0.15c0-6.31-4.34-12.02-11.18-12.02c-6.77,0-11.03,5.63-11.03,11.86v0.15
			c0,6.31,4.34,12.02,11.18,12.02C151.78,45.75,156.04,40.12,156.04,33.88z"/>
		<path d="M178.85,7.11h18.56l11.41,18.71l11.41-18.71h18.56v53.24h-17.72V33.96L208.81,52.9h-0.3l-12.24-18.94v26.39h-17.42V7.11z"
			/>
		<path d="M263.41,6.73h17.64l22.44,53.62h-19.32l-2.81-7.15h-18.63l-2.74,7.15h-19.01L263.41,6.73z M276.95,40.57l-4.87-12.93
			l-4.87,12.93H276.95z"/>
		<path d="M300.52,52.36l9.51-11.33c5.78,4.49,12.32,6.24,18.63,6.24c3.27,0,4.56-0.84,4.56-2.28v-0.15c0-1.52-1.67-2.36-7.38-3.5
			c-11.94-2.43-22.43-5.86-22.43-17.11v-0.15c0-10.11,7.99-17.95,22.59-17.95c10.34,0,17.87,2.43,24.03,7.3l-8.67,12.02
			c-5.1-3.65-11.03-5.25-15.97-5.25c-2.66,0-3.88,0.91-3.88,2.21v0.15c0,1.45,1.37,2.43,7.07,3.42
			c13.61,2.43,22.74,6.54,22.74,17.19v0.15c0,11.18-9.2,18.02-23.5,18.02C316.95,61.34,307.29,58.37,300.52,52.36z"/>
	</g>
	<g>
		<g>
			<path d="M59.59,69.91L42.33,91.4l-0.45,0.56l0.38,0.6l17.97,28.58H41.39l-10.13-16.41l-0.73-1.19l-0.89,1.08l-4.56,5.55
				l-0.23,0.28v0.36v10.33H9.05V69.91h15.8v18.93v2.97l1.8-2.36l14.83-19.53H59.59 M61.67,68.91H40.98L25.85,88.83V68.91H8.05v53.24
				h17.8v-11.33l4.56-5.55l10.42,16.88h21.22L43.11,92.03L61.67,68.91L61.67,68.91z"/>
		</g>
		<g>
			<path d="M89.58,69.91c8.52,0,14.56,1.89,18.46,5.79c3.16,3.16,4.57,6.84,4.57,11.92v0.15c0,7.02-3.34,12.2-9.93,15.37l-1.05,0.51
				l0.66,0.96l11.32,16.54H95.74L86,106.38l-0.3-0.45h-0.54h-3.8h-1v1v14.21h-15.8V69.91H89.58 M80.36,95.23h1h7.68
				c4.84,0,7.84-2.36,7.84-6.17v-0.15c0-3.87-2.83-6.1-7.77-6.1h-7.76h-1v1v10.42V95.23 M89.58,68.91H63.57v53.24h17.8v-15.21h3.8
				l10.04,15.21h20.31l-12.4-18.1c6.46-3.12,10.49-8.44,10.49-16.27v-0.15c0-5.48-1.6-9.35-4.87-12.62
				C105.01,71.27,99.08,68.91,89.58,68.91L89.58,68.91z M81.36,94.23V83.81h7.76c4.18,0,6.77,1.67,6.77,5.1v0.15
				c0,3.27-2.59,5.17-6.84,5.17H81.36L81.36,94.23z"/>
		</g>
		<g>
			<path d="M134.89,69.91v51.24h-15.8V69.91H134.89 M135.89,68.91h-17.8v53.24h17.8V68.91L135.89,68.91z"/>
		</g>
		<g>
			<path d="M163.19,68.92c9.45,0,16.68,2.07,22.65,6.5l-7.53,10.43c-4.67-3.1-10.35-4.87-15.73-4.87c-4.53,0-4.88,2.45-4.88,3.21
				v0.15c0,2.54,2.9,3.54,7.9,4.41c15.57,2.78,21.92,7.48,21.92,16.2v0.15c0,10.5-8.62,17.02-22.5,17.02
				c-10.59,0-19.51-2.79-25.9-8.09l8.26-9.85c5.29,3.84,11.65,5.87,18.48,5.87c3.69,0,5.56-1.1,5.56-3.28v-0.15
				c0-2.43-2.52-3.35-8.18-4.48c-13.36-2.72-21.64-6.37-21.64-16.13v-0.15C141.6,75.57,150.07,68.92,163.19,68.92 M163.19,67.92
				c-14.6,0-22.59,7.83-22.59,17.95v0.15c0,11.26,10.5,14.68,22.44,17.11c5.7,1.14,7.38,1.98,7.38,3.5v0.15
				c0,1.45-1.29,2.28-4.56,2.28c-6.31,0-12.85-1.75-18.63-6.24l-9.51,11.33c6.77,6.01,16.43,8.97,27.3,8.97
				c14.3,0,23.5-6.84,23.5-18.02v-0.15c0-10.65-9.13-14.75-22.74-17.19c-5.7-0.99-7.07-1.98-7.07-3.42v-0.15
				c0-1.29,1.22-2.21,3.88-2.21c4.94,0,10.88,1.6,15.97,5.25l8.67-12.02C181.06,70.35,173.53,67.92,163.19,67.92L163.19,67.92z"/>
		</g>
		<g>
			<path d="M236.79,69.91v13.06h-14.67h-1v1v37.18h-15.8V83.97v-1h-1h-14.67V69.91H236.79 M237.79,68.91h-49.13v15.06h15.67v38.18
				h17.8V83.97h15.67V68.91L237.79,68.91z"/>
		</g>
		<g>
			<path d="M286.22,69.91v12.6h-26.91h-1v1v5.4v1h1h25.01v10.85h-25.01h-1v1v5.78v1h1h27.29v12.6h-43.78V69.91H286.22 M287.22,68.91
				h-45.4v53.24h45.78v-14.6h-28.29v-5.78h26.01V88.91h-26.01v-5.4h27.91V68.91L287.22,68.91z"/>
		</g>
		<g>
			<path d="M344.62,69.91v51.24h-14.34l-19.47-24.19l-1.78-2.21v2.84v23.56h-15.64V69.91h15.18l18.64,23.13l1.78,2.21v-2.83v-22.5
				H344.62 M345.62,68.91h-17.64v23.5l-18.94-23.5h-16.66v53.24h17.64V97.58l19.77,24.56h15.82V68.91L345.62,68.91z"/>
		</g>
		<g>
			<path d="M372.77,68.92c9.45,0,16.68,2.07,22.65,6.5l-7.53,10.43c-4.67-3.1-10.35-4.87-15.73-4.87c-4.53,0-4.88,2.45-4.88,3.21
				v0.15c0,2.54,2.9,3.54,7.9,4.41c15.57,2.78,21.91,7.48,21.91,16.2v0.15c0,10.5-8.62,17.02-22.5,17.02
				c-10.58,0-19.51-2.79-25.9-8.09l8.26-9.85c5.28,3.84,11.65,5.87,18.48,5.87c3.69,0,5.56-1.1,5.56-3.28v-0.15
				c0-2.43-2.52-3.35-8.18-4.48c-13.36-2.72-21.63-6.37-21.63-16.13v-0.15C351.18,75.57,359.65,68.92,372.77,68.92 M372.77,67.92
				c-14.6,0-22.59,7.83-22.59,17.95v0.15c0,11.26,10.49,14.68,22.43,17.11c5.7,1.14,7.38,1.98,7.38,3.5v0.15
				c0,1.45-1.29,2.28-4.56,2.28c-6.31,0-12.85-1.75-18.63-6.24l-9.51,11.33c6.77,6.01,16.43,8.97,27.3,8.97
				c14.3,0,23.5-6.84,23.5-18.02v-0.15c0-10.65-9.13-14.75-22.74-17.19c-5.7-0.99-7.07-1.98-7.07-3.42v-0.15
				c0-1.29,1.22-2.21,3.88-2.21c4.94,0,10.88,1.6,15.97,5.25l8.67-12.02C390.64,70.35,383.11,67.92,372.77,67.92L372.77,67.92z"/>
		</g>
		<g>
			<path d="M446.6,69.91v12.6h-26.91h-1v1v5.4v1h1h25.01v10.85h-25.01h-1v1v5.78v1h1h27.29v12.6h-43.78V69.91H446.6 M447.6,68.91
				h-45.4v53.24h45.78v-14.6h-28.29v-5.78h26.01V88.91h-26.01v-5.4h27.91V68.91L447.6,68.91z"/>
		</g>
		<g>
			<path d="M505,69.91v51.24h-14.34l-19.47-24.19l-1.78-2.21v2.84v23.56h-15.64V69.91h15.18l18.64,23.13l1.78,2.21v-2.83v-22.5H505
				 M506,68.91h-17.64v23.5l-18.94-23.5h-16.66v53.24h17.64V97.58l19.77,24.56H506V68.91L506,68.91z"/>
		</g>
	</g>
</g>
</svg>
